<svg width="16" height="15" viewBox="0 0 16 15" fill="none" xmlns="http://www.w3.org/2000/svg">
<path d="M9.92162 5.10512L8.71329 1.38627C8.48878 0.69529 7.51122 0.695285 7.28671 1.38627L6.07838 5.10512C6.04491 5.20812 5.94892 5.27786 5.84062 5.27786H1.93039C1.20385 5.27786 0.901762 6.20757 1.48955 6.63463L4.65299 8.933C4.74061 8.99666 4.77728 9.1095 4.74381 9.21251L3.53548 12.9314C3.31097 13.6223 4.10182 14.1969 4.68961 13.7699L7.85305 11.4715C7.94068 11.4078 8.05932 11.4078 8.14695 11.4715L11.3104 13.7699C11.8982 14.1969 12.689 13.6223 12.4645 12.9314L11.2562 9.21251C11.2227 9.1095 11.2594 8.99666 11.347 8.933L14.5104 6.63463C15.0982 6.20758 14.7962 5.27786 14.0696 5.27786H10.1594C10.0511 5.27786 9.95509 5.20812 9.92162 5.10512Z" fill="white" stroke="black" stroke-width="0.5"/>
</svg>
